<?xml version="1.0" encoding="iso-8859-1"?>
<!-- Uploaded to: SVG Repo, www.svgrepo.com, Generator: SVG Repo Mixer Tools -->
<svg height="800px" width="800px" version="1.1" id="Layer_1" xmlns="http://www.w3.org/2000/svg" xmlns:xlink="http://www.w3.org/1999/xlink" 
	 viewBox="0 0 404 404" xml:space="preserve">
<g>
	<path style="fill:#F7B239;" d="M268.21,27.62v5.91h-0.03H135.82h-0.03v-5.91c0-11.94,9.68-21.62,21.62-21.62h89.18
		C258.53,6,268.21,15.68,268.21,27.62z"/>
	<polyline style="fill:#F24125;" points="336.061,65 347.611,107.93 330.79,107.93 73.21,107.93 56.39,107.93 67.94,65 135.79,65 
		268.211,65 336.061,65 	"/>
	<polyline style="fill:#9E3B2B;" points="97.94,65 67.94,65 56.39,107.93 73.21,107.93 86.39,107.93 97.94,65 	"/>
	<polyline style="fill:#F24125;" points="330.79,107.93 327.331,136.931 296.17,398 107.831,398 76.67,136.931 73.21,107.93 
		330.79,107.93 	"/>
	<polyline style="fill:#9E3B2B;" points="330.79,107.93 86.39,107.93 73.21,107.93 76.67,136.931 107.831,398 127,398 
		109.67,136.931 327.331,136.931 330.79,107.93 	"/>
	<path style="fill:#333333;" d="M353.404,106.372l-11.55-42.93C341.149,60.821,338.773,59,336.06,59h-61.85V27.62
		C274.21,12.39,261.82,0,246.59,0h-89.18c-15.229,0-27.62,12.39-27.62,27.62V59H67.94c-2.714,0-5.089,1.821-5.794,4.441
		l-11.55,42.93c-0.485,1.802-0.104,3.728,1.032,5.209c1.135,1.481,2.896,2.35,4.762,2.35h11.494l33.989,284.781
		c0.36,3.018,2.919,5.289,5.958,5.289h188.34c3.039,0,5.598-2.271,5.958-5.289l33.989-284.781h11.493
		c1.866,0,3.627-0.869,4.762-2.35C353.507,110.099,353.889,108.174,353.404,106.372z M141.791,39.53h120.42V59h-120.42V39.53z
		 M157.411,12h89.18c8.583,0,15.566,6.959,15.615,15.53H141.795C141.844,18.959,148.828,12,157.411,12z M290.844,392H113.157
		L79.969,113.93h244.062L290.844,392z M64.217,101.93L72.54,71h258.92l8.322,30.93H64.217z"/>
	<path style="fill:#FFFFFF;" d="M300.153,161.139c-0.39,0-0.779-0.04-1.17-0.12c-0.38-0.07-0.76-0.19-1.12-0.34
		c-0.369-0.15-0.71-0.34-1.04-0.55c-0.329-0.22-0.63-0.47-0.909-0.75c-1.12-1.12-1.761-2.66-1.761-4.24c0-0.39,0.04-0.79,0.12-1.17
		c0.08-0.39,0.19-0.76,0.34-1.13c0.15-0.36,0.341-0.71,0.551-1.03c0.22-0.33,0.47-0.64,0.75-0.92c0.279-0.27,0.58-0.52,0.909-0.74
		c0.33-0.22,0.671-0.4,1.04-0.55c0.36-0.15,0.74-0.27,1.12-0.34c0.771-0.16,1.57-0.16,2.34,0c0.391,0.07,0.771,0.19,1.131,0.34
		c0.359,0.15,0.71,0.33,1.029,0.55c0.33,0.22,0.641,0.47,0.92,0.74c0.271,0.28,0.521,0.59,0.74,0.92c0.22,0.32,0.4,0.67,0.55,1.03
		c0.15,0.37,0.271,0.74,0.341,1.13c0.079,0.38,0.119,0.78,0.119,1.17c0,1.58-0.64,3.12-1.75,4.24
		C303.284,160.499,301.733,161.139,300.153,161.139z"/>
	<path style="fill:#FFFFFF;" d="M274.866,373.103c-0.237,0-0.478-0.014-0.719-0.043c-3.29-0.393-5.64-3.378-5.247-6.668
		l22.916-192.01c0.394-3.291,3.39-5.637,6.669-5.247c3.29,0.393,5.64,3.378,5.247,6.668l-22.916,192.01
		C280.452,370.862,277.861,373.103,274.866,373.103z"/>
	<path style="fill:#FFFFFF;" d="M326,97.001c-2.512,0-4.853-1.59-5.691-4.104l-3.65-10.951c-1.048-3.144,0.651-6.542,3.795-7.589
		c3.143-1.048,6.541,0.651,7.59,3.794l3.65,10.951c1.048,3.144-0.651,6.542-3.795,7.589C327.268,96.902,326.628,97.001,326,97.001z"
		/>
</g>
</svg>